<svg width="30" height="31" viewBox="0 0 30 31" fill="none" xmlns="http://www.w3.org/2000/svg">
<path d="M29.4989 19.6341H0.500956C0.22498 19.6341 0.000976562 19.865 0.000976562 20.1507C0.000976562 26.1328 4.71067 31 10.5003 31H19.4996C25.2888 31 29.9989 26.1328 29.9989 20.1507C29.9989 19.865 29.7754 19.6341 29.4989 19.6341ZM19.4996 29.9667H10.5003C5.43009 29.9667 1.27486 25.8409 1.01388 20.6673H28.986C28.725 25.8409 24.5698 29.9667 19.4996 29.9667Z" fill="#E84237"/>
<path d="M5.01758 19.3327L6.12245 19.3441L7.22732 19.3555L7.20972 21.1774L4.99998 21.1546L5.01758 19.3327Z" fill="#161616"/>
<path d="M25.5013 7.23806C25.5013 7.20034 25.5008 7.16262 25.4973 7.10528C25.4204 6.24873 24.8504 5.54505 24.098 5.28107L24.6639 4.69625C25.6454 3.7028 25.7438 2.11363 24.8849 0.991512C23.9649 -0.16366 22.307 -0.327984 21.1896 0.622116C21.1261 0.676366 21.0646 0.733704 21.0031 0.797278L20.3882 1.44204C20.1302 0.668616 19.4477 0.0837946 18.6068 0.00320684C17.4994 -0.0592774 16.5619 0.818953 16.5025 1.95657C16.5005 1.99429 16.4999 2.03201 16.4999 2.06918V2.8612C16.206 2.68501 15.8655 2.58377 15.502 2.58323C15.466 2.58323 15.429 2.58426 15.3735 2.58734C14.3046 2.69015 13.4822 3.63922 13.5002 4.7396V5.44225C13.2002 5.26297 12.8582 5.16688 12.5023 5.16633C12.4663 5.16633 12.4298 5.16736 12.3743 5.17045C11.3048 5.27326 10.4824 6.22233 10.5004 7.32277V14.9844C10.5004 15.2701 10.7244 15.5011 11.0004 15.5011H19.4998C20.6027 15.5011 21.4997 14.5742 21.4991 13.4356C21.4991 13.0595 21.4016 12.7066 21.2307 12.4023H21.9061C22.98 12.4328 23.8985 11.5705 23.999 10.4458C24.0205 10.0253 23.9185 9.62748 23.7255 9.28963C24.1745 9.23798 24.59 9.03285 24.9139 8.69912C25.2918 8.30956 25.5008 7.79085 25.5013 7.23806ZM24.2079 7.96753C24.0189 8.16176 23.7684 8.26875 23.5009 8.26875C23.5004 8.26875 23.4999 8.26875 23.4994 8.26875H21.9995C21.723 8.26875 21.4996 8.50022 21.4996 8.7854C21.4996 9.07057 21.723 9.30204 21.9995 9.30204L22.0546 9.30362C22.6055 9.33407 23.0295 9.82177 23.0015 10.3705C22.9505 10.9398 22.4831 11.3805 21.9146 11.3686H19.4998C19.2233 11.3686 18.9998 11.6 18.9998 11.8852C18.9998 12.1704 19.2233 12.4019 19.4998 12.4019C20.0512 12.4019 20.4997 12.8653 20.4997 13.4351C20.4997 14.005 20.0512 14.4684 19.4998 14.4684H11.5003V7.31399C11.4908 6.74206 11.9157 6.25285 12.4472 6.20114L12.5017 6.19956C13.0522 6.20005 13.4996 6.66299 13.5001 7.23128V7.23491C13.5001 7.52009 13.7236 7.75156 13.9996 7.75156C14.0001 7.75156 14.0001 7.75156 14.0001 7.75156C14.2761 7.75156 14.4995 7.52063 14.5001 7.23546V7.23497V4.73082C14.4906 4.1589 14.9156 3.66968 15.447 3.61797L15.501 3.6164C16.052 3.61743 16.4995 4.08031 16.5 4.64914V4.65223C16.5 4.93741 16.7235 5.16888 16.9994 5.16888C17 5.16888 17 5.16888 17 5.16888C17.2759 5.16888 17.4994 4.93795 17.5 4.65278V4.65223V2.06912L17.5015 2.01179C17.5305 1.44295 17.9914 1.00489 18.5334 1.03329C19.0854 1.08651 19.5098 1.57573 19.4993 2.15746V2.58625C19.4993 2.7955 19.6219 2.98459 19.8098 3.06415C19.9963 3.14371 20.2133 3.09824 20.3553 2.94844L21.7117 1.52614C21.7486 1.48842 21.7867 1.45276 21.8262 1.41921C22.5181 0.831305 23.5435 0.933569 24.1075 1.64033C24.6415 2.3388 24.5799 3.33485 23.961 3.96157L22.6461 5.3203C22.5031 5.46804 22.4601 5.69018 22.5376 5.88345C22.6146 6.07617 22.7976 6.20223 22.9996 6.20223H23.4145C23.425 6.20223 23.4325 6.20223 23.441 6.20223C23.987 6.20223 24.4509 6.63726 24.4999 7.18072L24.5014 7.23758C24.5008 7.51343 24.3969 7.77275 24.2079 7.96753Z" fill="#E84237"/>
<path d="M21.6464 3.25217L7.64758 17.7176L8.35461 18.4482L22.3534 3.98277L21.6464 3.25217Z" fill="#E84237"/>
<path d="M19.4987 4.13825H18.4988V6.72142H19.4987V4.13825Z" fill="#E84237"/>
<path d="M16.4989 6.72142H15.4989V9.82123H16.4989V6.72142Z" fill="#E84237"/>
<path d="M13.4991 9.29938H12.4991V12.9158H13.4991V9.29938Z" fill="#E84237"/>
<path d="M21.4985 6.20477H18.9987V7.238H21.4985V6.20477Z" fill="#E84237"/>
<path d="M18.9988 9.29938H15.999V10.3326H18.9988V9.29938Z" fill="#E84237"/>
<path d="M16.4989 12.3992H12.9991V13.4325H16.4989V12.3992Z" fill="#E84237"/>
<path d="M26.9991 3.10242V4.13571C27.5506 4.13571 27.9991 4.59913 27.9991 5.16894C27.9991 5.73874 27.5506 6.20223 26.9991 6.20223V7.23546C28.1021 7.23546 28.999 6.30861 28.999 5.16894C28.999 4.02927 28.1021 3.10242 26.9991 3.10242Z" fill="#E84237"/>
<path d="M19.4996 16.5343C18.3967 16.5343 17.4998 17.4611 17.4998 18.6008H18.4997C18.4997 18.0309 18.9482 17.5675 19.4996 17.5675C20.0511 17.5675 20.4996 18.0309 20.4996 18.6008H21.4995C21.4995 17.4611 20.6025 16.5343 19.4996 16.5343Z" fill="#E84237"/>
<path d="M6.00056 11.8846H5.93757C5.71456 10.9944 4.9311 10.3347 4.0007 10.3347C3.07029 10.3347 2.2863 10.9944 2.06382 11.8846H2.00084C0.897928 11.8846 0.000976562 12.8114 0.000976562 13.9511C0.000976562 15.0908 0.897928 16.0176 2.00084 16.0176H6.00056C7.10346 16.0176 8.00042 15.0908 8.00042 13.9511C8.00042 12.8114 7.10346 11.8846 6.00056 11.8846ZM6.00056 14.9849H2.00078C1.44929 14.9849 1.00082 14.5215 1.00082 13.9517C1.00082 13.3818 1.44929 12.9184 2.00078 12.9184H2.50076C2.77673 12.9184 3.00074 12.6869 3.00074 12.4017C3.00074 11.8319 3.44921 11.3685 4.0007 11.3685C4.55218 11.3685 5.00066 11.8319 5.00066 12.4017C5.00066 12.6869 5.22466 12.9184 5.50064 12.9184H6.00062C6.5521 12.9184 7.00057 13.3818 7.00057 13.9517C7.00046 14.5215 6.55198 14.9849 6.00056 14.9849Z" fill="#E84237"/>
<path d="M5.00057 14.9844H3.00071C2.72474 14.9844 2.50073 15.2159 2.50073 15.5011V17.5676C2.50073 17.8533 2.72474 18.0842 3.00071 18.0842H5.00057C5.27655 18.0842 5.50055 17.8533 5.50055 17.5676V15.5011C5.50055 15.2159 5.27655 14.9844 5.00057 14.9844ZM4.50059 17.0509H3.50069V16.0177H4.50065V17.0509H4.50059Z" fill="#E84237"/>
<path d="M26.4991 13.4345C25.6722 13.4345 24.9993 14.1299 24.9993 14.9844C24.9993 15.8389 25.6722 16.5343 26.4991 16.5343C27.3261 16.5343 27.999 15.8389 27.999 14.9844C27.999 14.1299 27.3261 13.4345 26.4991 13.4345ZM26.4991 15.5015C26.2232 15.5015 25.9992 15.2696 25.9992 14.9849C25.9992 14.7002 26.2232 14.4683 26.4991 14.4683C26.7751 14.4683 26.9991 14.6997 26.9991 14.9849C26.9991 15.2701 26.7751 15.5015 26.4991 15.5015Z" fill="#E84237"/>
<path d="M26.4992 11.368C24.5699 11.368 22.9995 12.9902 22.9995 14.9844C22.9995 16.9786 24.5699 18.6008 26.4992 18.6008C28.4286 18.6008 29.999 16.9786 29.999 14.9844C29.999 12.9902 28.4286 11.368 26.4992 11.368ZM26.4992 17.5681C25.1208 17.5681 23.9994 16.4088 23.9994 14.9849C23.9994 13.5605 25.1208 12.4017 26.4992 12.4017C27.8777 12.4017 28.9991 13.5605 28.9991 14.9849C28.9991 16.4093 27.8777 17.5681 26.4992 17.5681Z" fill="#E84237"/>
</svg>
