<svg width="28" height="28" viewBox="0 0 28 28" fill="none" xmlns="http://www.w3.org/2000/svg">
<g clip-path="url(#clip0)">
<path d="M26.6953 21.6869H24.9813C25.326 21.2852 25.535 20.7637 25.535 20.1941V19.8227C25.535 19.042 25.143 18.3515 24.5458 17.9365C25.143 17.5215 25.535 16.831 25.535 16.0503V15.6789C25.535 14.8982 25.143 14.2076 24.5458 13.7927C25.143 13.3777 25.535 12.6871 25.535 11.9065V11.5351C25.535 10.2691 24.5051 9.23912 23.2391 9.23912H22.1134C22.2776 8.97476 22.3727 8.66326 22.3727 8.32989C22.3727 7.37669 21.5972 6.60116 20.644 6.60116H18.2225C18.3714 6.32674 18.4757 6.02476 18.5244 5.70462C19.0325 5.61121 19.527 5.4437 19.9809 5.20215C20.5297 4.91006 21.0361 4.51243 21.4858 4.0203C22.1928 3.24669 22.6233 2.31973 22.7309 1.33973C22.7597 1.07674 22.6305 0.821242 22.4015 0.688734C21.5592 0.201359 20.5712 -0.00196888 19.5435 0.100515C18.6423 0.190476 17.8434 0.460633 17.2334 0.881726C16.5683 1.34077 16.0285 1.90241 15.6396 2.52738C15.0158 2.56134 14.4467 2.80355 13.9998 3.18489C13.517 2.77271 12.8916 2.52301 12.2086 2.52301C10.6844 2.52301 9.44431 3.76305 9.44431 5.2873C9.44431 5.76253 9.5649 6.21009 9.77703 6.60111H9.42616C9.19986 6.60111 9.01644 6.78453 9.01644 7.01083C9.01644 7.23712 9.19986 7.42055 9.42616 7.42055H10.4525C10.9303 7.81462 11.5423 8.05159 12.2086 8.05159C12.8916 8.05159 13.5172 7.80199 14 7.38992C14.4829 7.80199 15.1085 8.05159 15.7916 8.05159C16.4576 8.05159 17.069 7.81435 17.5467 7.42055H20.644C21.1454 7.42055 21.5533 7.82846 21.5533 8.32983C21.5533 8.83121 21.1454 9.23907 20.644 9.23907H19.5896C18.3498 9.23907 17.3411 10.2478 17.3411 11.4876V14.6671C17.3411 15.1015 16.9877 15.4549 16.5533 15.4549C16.1189 15.4549 15.7655 15.1015 15.7655 14.6671V11.4876C15.7655 10.2478 14.7568 9.23907 13.517 9.23907H7.25949C6.75812 9.23907 6.3502 8.83121 6.3502 8.32983C6.3502 7.82846 6.75812 7.42055 7.25949 7.42055H7.53763C7.76393 7.42055 7.94735 7.23712 7.94735 7.01083C7.94735 6.78453 7.76393 6.60111 7.53763 6.60111H7.25949C6.30629 6.60111 5.53077 7.37663 5.53077 8.32983C5.53077 8.66327 5.62592 8.97476 5.79009 9.23907H4.76098C3.49497 9.23907 2.46504 10.2691 2.46504 11.535V11.9064C2.46504 12.6871 2.85704 13.3777 3.45423 13.7926C2.85704 14.2076 2.46504 14.8982 2.46504 15.6789V16.0502C2.46504 16.8309 2.85704 17.5215 3.45423 17.9365C2.85704 18.3515 2.46504 19.042 2.46504 19.8227V20.1941C2.46504 20.7637 2.674 21.2851 3.01875 21.6869H1.30468C0.585266 21.6869 0 22.2722 0 22.9916V23.5066C0 24.226 0.585266 24.8113 1.30468 24.8113H2.27588V24.814C2.27588 26.5296 3.67166 27.9254 5.38732 27.9254H17.7133C17.9396 27.9254 18.123 27.742 18.123 27.5157C18.123 27.2894 17.9396 27.106 17.7133 27.106H5.38737C4.12355 27.106 3.09537 26.0778 3.09537 24.814V24.8113H24.9047V24.814C24.9047 26.0778 23.8765 27.106 22.6127 27.106H19.6067C19.3804 27.106 19.197 27.2894 19.197 27.5157C19.197 27.742 19.3804 27.9254 19.6067 27.9254H22.6127C24.3283 27.9254 25.7241 26.5296 25.7241 24.814V24.8113H26.6953C27.4147 24.8113 28 24.2261 28 23.5066V22.9916C28 22.2722 27.4147 21.6869 26.6953 21.6869ZM17.6988 1.55608C18.1951 1.21352 18.8612 0.99214 19.6248 0.915851C20.4448 0.833929 21.2303 0.983719 21.904 1.3492C21.7981 2.11898 21.4456 2.84938 20.8809 3.46746C20.4998 3.88451 20.0554 4.23418 19.5959 4.47874C19.2639 4.65544 18.8998 4.78401 18.5236 4.86544C18.3596 3.79843 17.5829 2.93136 16.5654 2.63402C16.8707 2.23059 17.2537 1.86331 17.6988 1.55608ZM12.2085 7.23215C11.1361 7.23215 10.2636 6.35966 10.2636 5.2873C10.2636 4.21493 11.1361 3.34244 12.2085 3.34244C12.6856 3.34244 13.123 3.51542 13.4617 3.80166C13.1869 4.23101 13.0272 4.74075 13.0272 5.2873C13.0272 5.83368 13.1872 6.34309 13.4619 6.77244C13.1231 7.05884 12.6858 7.23215 12.2085 7.23215ZM15.7915 7.23215C14.7191 7.23215 13.8467 6.35966 13.8467 5.2873C13.8467 4.21493 14.7191 3.34244 15.7915 3.34244C16.8639 3.34244 17.7364 4.21493 17.7364 5.2873C17.7364 6.35972 16.8639 7.23215 15.7915 7.23215ZM18.1606 11.4875C18.1606 10.6996 18.8017 10.0585 19.5896 10.0585H23.239C24.0531 10.0585 24.7156 10.7208 24.7156 11.535V11.9063C24.7156 12.7205 24.0532 13.3829 23.239 13.3829H18.1606V11.4875ZM3.28448 11.9064V11.535C3.28448 10.7209 3.94685 10.0585 4.76104 10.0585H13.5171C14.305 10.0585 14.9461 10.6996 14.9461 11.4876V13.383H4.76098C3.94685 13.3829 3.28448 12.7205 3.28448 11.9064ZM3.28448 16.0502V15.6789C3.28448 14.8648 3.94685 14.2024 4.76104 14.2024H14.9461V14.6671C14.9461 15.5533 15.6671 16.2743 16.5534 16.2743C17.4396 16.2743 18.1606 15.5533 18.1606 14.6671V14.2023H23.239C24.0531 14.2023 24.7156 14.8647 24.7156 15.6789V16.0502C24.7156 16.8644 24.0532 17.5267 23.239 17.5267H4.76098C3.94685 17.5268 3.28448 16.8644 3.28448 16.0502ZM3.28448 19.8227C3.28448 19.0086 3.94685 18.3462 4.76104 18.3462H23.2391C24.0532 18.3462 24.7156 19.0086 24.7156 19.8227V20.1941C24.7156 21.0083 24.0533 21.6706 23.2391 21.6706H4.76098C3.94685 21.6706 3.28442 21.0083 3.28442 20.1941V19.8227H3.28448ZM27.1806 23.5066C27.1806 23.7742 26.9629 23.9919 26.6953 23.9919H1.30468C1.03709 23.9919 0.819438 23.7742 0.819438 23.5066V22.9916C0.819438 22.724 1.03709 22.5063 1.30468 22.5063H26.6953C26.9629 22.5063 27.1806 22.724 27.1806 22.9916V23.5066Z" fill="#E84237"/>
<path d="M16.1442 3.98004C15.9347 3.89473 15.6956 3.99552 15.6103 4.20514C15.525 4.4147 15.6258 4.65379 15.8354 4.73905C16.049 4.826 16.2 5.08298 16.1719 5.31196C16.1443 5.53656 16.304 5.74098 16.5286 5.76854C16.5456 5.77062 16.5624 5.77166 16.5791 5.77166C16.783 5.77166 16.9597 5.61941 16.9853 5.41182C17.059 4.81047 16.7053 4.20836 16.1442 3.98004Z" fill="#E84237"/>
<rect x="17.7471" y="27.0667" width="2.06253" height="1.37409" transform="rotate(0.571901 17.7471 27.0667)" fill="#161616"/>
</g>
<defs>
<clipPath id="clip0">
<rect width="28" height="28" fill="white"/>
</clipPath>
</defs>
</svg>
