<svg width="31" height="31" viewBox="0 0 31 31" fill="none" xmlns="http://www.w3.org/2000/svg">
<path d="M30.9854 23.5491L30.8672 22.9108C30.7918 22.503 30.4356 22.207 30.0204 22.207C29.9682 22.207 29.9157 22.2118 29.864 22.2213L27.4566 22.6635L28.5468 21.9347C28.8326 21.7437 28.977 21.4021 28.9147 21.0633C28.8973 20.9704 28.8649 20.8814 28.8179 20.798L28.488 20.2138C28.3749 20.0131 28.1822 19.864 27.9597 19.8049C27.8507 19.7758 27.7367 19.7693 27.6256 19.7838C27.747 19.1138 27.8096 18.4295 27.8096 17.7329C27.8096 17.4238 27.6237 17.1578 27.3582 17.0397C27.7051 16.2146 27.7288 15.2699 27.3859 14.4048C27.3581 14.3345 27.3168 14.2717 27.2633 14.2182C27.2103 14.1651 27.1482 14.1241 27.0778 14.0959C26.6669 13.9322 26.235 13.8492 25.7941 13.8492C25.7378 13.8492 25.6816 13.8507 25.6257 13.8534C25.5628 12.5859 24.5138 11.5741 23.2333 11.5741C23.0646 11.5741 22.9002 11.5921 22.7414 11.6255C22.8517 10.9655 22.7867 10.2751 22.5297 9.62691C22.5021 9.55565 22.4606 9.49171 22.4043 9.43443C22.35 9.38018 22.2864 9.33834 22.2158 9.31031C21.7731 9.134 21.3079 9.04463 20.8329 9.04463C20.1175 9.04463 19.4332 9.24577 18.8424 9.61971C18.6265 8.99444 18.2706 8.40744 17.7732 7.90896C17.6275 7.76304 17.4338 7.68264 17.2276 7.68264C17.0215 7.68264 16.8277 7.76304 16.6819 7.90908L14.4832 10.1127C14.0764 9.74982 13.541 9.53288 12.9598 9.53288C12.828 9.53288 12.6948 9.54445 12.5641 9.56721C12.0904 9.64968 11.6546 9.88151 11.3204 10.2211C10.8919 10.0143 10.4011 9.94375 9.92935 10.0259C9.82557 10.0439 9.72488 10.0693 9.62716 10.1003V8.40223C9.62716 7.23284 8.68729 6.27977 7.52468 6.25967V5.29662C7.88057 5.23504 8.1523 4.92486 8.1523 4.55165V2.36961C8.1523 1.95232 7.81282 1.61278 7.39547 1.61278H3.70267C3.28532 1.61278 2.94584 1.95232 2.94584 2.36961V4.55165C2.94584 4.92486 3.21757 5.23504 3.57346 5.29662V6.25955C2.41085 6.27959 1.47104 7.23265 1.47104 8.40211V21.6555C0.564416 22.4743 0 23.6168 0 24.8801C0 27.3653 2.18119 29.3872 4.86232 29.3872L23.0376 29.3819C23.658 29.3816 24.2414 29.109 24.6382 28.6339C25.0248 28.1715 25.189 27.5708 25.0944 26.9784L28.7246 27.6308C28.7749 27.6398 28.8263 27.6444 28.8774 27.6444C29.0584 27.6444 29.2319 27.5889 29.3787 27.4839C29.5676 27.349 29.6954 27.1401 29.7295 26.9111L29.8278 26.2513C29.842 26.1568 29.8404 26.0616 29.8232 25.9683C29.7607 25.631 29.5038 25.3633 29.1686 25.2865L27.8891 24.993L30.2941 24.5512C30.5209 24.5095 30.7177 24.3822 30.8482 24.1926C30.9785 24.0035 31.0272 23.775 30.9854 23.5491ZM25.7941 14.7573C26.0675 14.7573 26.3363 14.8006 26.5947 14.8859C26.8256 15.5891 26.7392 16.3476 26.3776 16.9741H25.1543L25.5446 16.5829C25.7218 16.4053 25.7214 16.1178 25.5438 15.9406C25.3663 15.7635 25.0787 15.7638 24.9017 15.9414L24.6952 16.1484C24.5983 15.8296 24.4293 15.5442 24.2071 15.3101C24.6578 14.9522 25.2111 14.7573 25.7941 14.7573ZM23.2333 12.4822C24.0534 12.4822 24.7205 13.1514 24.7205 13.9739C24.7205 13.9892 24.7198 14.0042 24.7194 14.0194C24.2407 14.1751 23.7995 14.4351 23.4232 14.7883C23.3633 14.7656 23.3026 14.7445 23.2402 14.7272C23.1074 14.0096 22.6238 13.4344 21.985 13.1658C22.2501 12.7551 22.7101 12.4822 23.2333 12.4822ZM20.8329 9.95271C21.1413 9.95271 21.4444 10.0026 21.7365 10.1013C21.9712 10.7993 21.9233 11.549 21.6242 12.1984C21.3783 12.4224 21.1788 12.6967 21.0424 13.005C20.9614 13.0097 20.8803 13.0187 20.8002 13.0326C20.4444 13.0945 20.1126 13.2489 19.8349 13.4728C19.7402 13.2997 19.6243 13.1399 19.4914 12.996L20.5328 11.9523C20.7099 11.7748 20.7096 11.4873 20.532 11.3102C20.3544 11.133 20.0669 11.1333 19.8898 11.3109L18.7516 12.4517C18.535 12.3493 18.3009 12.2781 18.0549 12.2448C18.1612 11.7029 18.4242 11.1923 18.8309 10.7846C19.3661 10.2481 20.0771 9.95271 20.8329 9.95271ZM17.3533 16.9741H16.9597C16.8934 16.8054 16.7295 16.6859 16.5372 16.6859C16.345 16.6859 16.1811 16.8055 16.1148 16.9741H15.6517C15.7593 16.799 15.7375 16.567 15.5857 16.4155C15.4082 16.2384 15.1207 16.2387 14.9435 16.4162L14.5155 16.8451C14.4771 16.8836 14.4475 16.9275 14.4258 16.9741H13.5015C13.1554 16.4429 12.9441 15.816 12.9191 15.1415H20.1233C20.0983 15.816 19.8871 16.4429 19.5409 16.9741H18.5792C18.5575 16.9275 18.5278 16.8835 18.4894 16.845L18.0615 16.4161C17.8843 16.2387 17.5968 16.2382 17.4193 16.4154C17.2674 16.5669 17.2457 16.799 17.3533 16.9741ZM16.2972 14.2333C16.4683 13.5989 17.047 13.1309 17.7327 13.1309C18.4185 13.1309 18.9972 13.599 19.1683 14.2333H16.2972ZM17.2258 8.64963C17.6577 9.11644 17.9433 9.67069 18.0833 10.2533C17.8515 10.5052 17.6589 10.7836 17.507 11.0798C17.438 11.0376 17.3572 11.0128 17.2704 11.0128H16.6653C16.4146 11.0128 16.2112 11.2161 16.2112 11.4669C16.2112 11.7177 16.4146 11.921 16.6653 11.921H17.1962C17.1663 12.0464 17.1431 12.1733 17.1263 12.3012C16.946 12.3485 16.7738 12.416 16.6126 12.5018C16.3099 11.9795 15.8087 11.5903 15.2149 11.4341L15.2142 11.4303C15.1786 11.2248 15.1165 11.0298 15.0318 10.8486L17.2258 8.64963ZM9.01697 12.7472C8.99033 12.6727 8.97017 12.5963 8.95691 12.5196C8.82667 11.7688 9.33284 11.0515 10.085 10.9205C10.1643 10.9067 10.2449 10.8997 10.3245 10.8997C10.6236 10.8997 10.9095 10.9951 11.1512 11.1756C11.2511 11.2503 11.3776 11.2805 11.5006 11.2592C11.6236 11.2378 11.7324 11.1668 11.8014 11.0627C12.0146 10.7411 12.3408 10.5278 12.7198 10.4618C12.7993 10.4479 12.8801 10.441 12.9598 10.441C13.6326 10.441 14.2044 10.9223 14.3193 11.5856C14.3325 11.6616 14.3393 11.7408 14.3394 11.821C14.3399 12.056 14.5196 12.252 14.7538 12.2726C15.2615 12.3172 15.6937 12.6367 15.894 13.0868C15.6258 13.4087 15.4399 13.8018 15.3693 14.2333H12.7796C12.4576 14.2333 12.1813 14.4321 12.0661 14.7134C11.4964 14.3253 10.8249 14.1163 10.1212 14.1163C9.68038 14.1163 9.2485 14.1993 8.83727 14.363C8.76752 14.3908 8.70515 14.432 8.65199 14.4851C8.59811 14.539 8.55675 14.6021 8.52963 14.6714C8.42513 14.935 8.35544 15.2059 8.31778 15.4786C8.15503 15.2933 8.04035 15.0629 7.99555 14.8044C7.88874 14.1883 8.21127 13.5748 8.77963 13.3125C8.99323 13.2139 9.09622 12.9686 9.01697 12.7472ZM10.3707 16.8499L10.4945 16.9741H9.40392C9.15907 16.4061 9.1219 15.7595 9.32067 15.1531C9.57945 15.0676 9.84809 15.0244 10.1212 15.0244C10.8055 15.0244 11.4491 15.2918 11.9336 15.7774C11.998 15.842 12.058 15.9096 12.1144 15.9796C12.1913 16.328 12.3096 16.6608 12.4619 16.9741H11.7775L11.0136 16.2084C10.8364 16.0309 10.5489 16.0304 10.3715 16.2077C10.1939 16.3849 10.1935 16.6724 10.3707 16.8499ZM8.43681 16.9741H6.81798C6.89015 16.5343 7.15474 16.1593 7.52201 15.9382C7.73943 16.2295 8.02322 16.465 8.35017 16.6245C8.3733 16.7423 8.40169 16.8591 8.43681 16.9741ZM3.85404 2.52098H7.2441V4.40028H3.85404V2.52098ZM6.61648 5.30848V6.25864H4.48172V5.30848H6.61648ZM2.3793 10.2437H5.3281C5.57895 10.2437 5.7822 10.0404 5.7822 9.7896C5.7822 9.53881 5.57895 9.3355 5.3281 9.3355H2.3793V8.40211C2.3793 7.72096 2.93173 7.16684 3.61076 7.16684H7.48744C8.16653 7.16684 8.71896 7.72096 8.71896 8.40211V9.3355H7.87106C7.62022 9.3355 7.41696 9.53881 7.41696 9.7896C7.41696 10.0404 7.62022 10.2437 7.87106 10.2437H8.71896V10.6468C8.19868 11.1569 7.92846 11.9049 8.0619 12.6744L8.06269 12.6791C7.3342 13.1789 6.94603 14.0675 7.10061 14.9595C7.10963 15.0116 7.12095 15.0628 7.1333 15.1135C6.90643 15.2386 6.70269 15.4001 6.52808 15.5891H2.3793V10.2437ZM2.37924 16.4973H6.00078C5.95258 16.6503 5.91855 16.8096 5.90197 16.9741H5.82543C5.40748 16.9741 5.06739 17.3145 5.06739 17.7328C5.06739 18.4538 5.13442 19.1617 5.26429 19.8542C5.13381 19.8437 5 19.8381 4.86389 19.8381C4.31474 19.8381 3.79149 19.9252 3.39073 20.0835C2.7777 20.3256 2.60823 20.6693 2.57123 20.9071C2.50627 20.9394 2.44245 20.9736 2.37924 21.0085V16.4973ZM8.12942 22.0757C8.29295 22.2066 8.39291 22.3178 8.45086 22.398C8.44541 22.3981 8.43972 22.3981 8.43396 22.3981C8.17694 22.3981 7.71516 22.2945 7.19003 22.0039C6.99453 21.8955 6.8144 21.7732 6.66909 21.6501C6.49968 21.5065 6.25126 21.5066 6.08197 21.6501C5.93666 21.7733 5.75659 21.8957 5.56127 22.0037C5.03603 22.2945 4.57424 22.3981 4.31728 22.3981C4.31141 22.3981 4.30577 22.3981 4.30026 22.398C4.35815 22.3178 4.45811 22.2065 4.62171 22.0756C4.76466 21.9612 4.8249 21.772 4.77447 21.596C4.72397 21.4199 4.57272 21.2914 4.39078 21.2701C3.94764 21.2181 3.66743 21.1053 3.53623 21.0232C3.70061 20.9209 4.1162 20.7463 4.86407 20.7463C5.48347 20.7463 5.93617 20.8765 6.15329 20.9985C6.2914 21.076 6.45978 21.076 6.59789 20.9985C6.81513 20.8766 7.2679 20.7464 7.88729 20.7464C8.63522 20.7464 9.05075 20.921 9.21508 21.0233C9.08393 21.1055 8.80366 21.2182 8.3604 21.2701C8.17846 21.2915 8.02715 21.42 7.97672 21.5961C7.9261 21.7722 7.98634 21.9613 8.12942 22.0757ZM7.22103 27.6028L7.23666 27.6869C7.29066 27.9786 7.40455 28.2463 7.56367 28.479H4.86232C2.68203 28.479 0.9082 26.8646 0.9082 24.8801C0.9082 23.5239 1.73696 22.3411 2.95734 21.7278C3.09751 21.8324 3.27224 21.9226 3.47955 21.9954C3.39733 22.1358 3.34006 22.2868 3.32655 22.4443C3.30863 22.6536 3.37269 22.8525 3.5071 23.0042C3.68469 23.2047 3.95727 23.3064 4.31728 23.3064C4.79705 23.3064 5.42655 23.1165 6.00114 22.7983C6.13343 22.7251 6.25852 22.6478 6.37562 22.5671C6.49266 22.6478 6.61775 22.7251 6.7501 22.7984C7.32469 23.1165 7.95419 23.3063 8.43396 23.3064C8.79385 23.3064 9.06649 23.2047 9.24402 23.0043C9.37849 22.8525 9.44261 22.6537 9.42463 22.4443C9.41113 22.2868 9.35385 22.1358 9.27163 21.9954C9.47894 21.9225 9.65374 21.8323 9.7939 21.7278C10.7617 22.2142 11.4829 23.0589 11.7401 24.0641L8.52836 25.2842C7.58825 25.6414 7.03843 26.6165 7.22103 27.6028ZM23.9412 28.0517C23.7173 28.3198 23.3878 28.4736 23.0372 28.4737L22.5606 28.4739L22.2628 26.866C22.2171 26.6194 21.9803 26.4564 21.7336 26.5022C21.487 26.5479 21.3241 26.7848 21.3698 27.0314L21.637 28.4742L20.0745 28.4748L19.8732 27.3875C19.8275 27.1409 19.5907 26.9781 19.344 27.0237C19.0974 27.0694 18.9345 27.3063 18.9802 27.5529L19.1509 28.4751L15.5166 28.4765L15.243 26.9999C15.1973 26.7533 14.9605 26.5904 14.7138 26.6362C14.4672 26.6818 14.3043 26.9188 14.35 27.1654L14.593 28.4769L9.2864 28.4789C8.71896 28.4789 8.23228 28.0763 8.12948 27.5213L8.11385 27.4372C8.01123 26.8828 8.32111 26.3344 8.85071 26.1332L10.6354 25.4552L10.7684 26.1728C10.8089 26.3914 10.9998 26.5442 11.2143 26.5442C11.2418 26.5442 11.2697 26.5417 11.2976 26.5366C11.5442 26.4908 11.7071 26.2539 11.6613 26.0073L11.4983 25.1274L14.1475 24.121C14.3819 24.0319 14.4998 23.7696 14.4108 23.5352C14.3217 23.3007 14.0591 23.1829 13.825 23.2719L12.5922 23.7403C12.2464 22.5158 11.3579 21.493 10.1798 20.907C10.1428 20.6692 9.9733 20.3255 9.36033 20.0834C8.95957 19.9252 8.43633 19.838 7.88717 19.838C7.50924 19.838 7.14832 19.8798 6.82972 19.9557V19.6815C6.82972 19.4307 6.62647 19.2274 6.37562 19.2274C6.2696 19.2274 6.17237 19.2639 6.09505 19.3248C6.02342 18.8512 5.98334 18.3701 5.97668 17.8822H20.7675C21.0183 17.8822 21.2216 17.6789 21.2216 17.4281C21.2216 17.1773 21.0183 16.974 20.7675 16.974H20.5817C20.8708 16.3785 21.0342 15.7108 21.0342 15.0051C21.0342 14.6044 20.7277 14.2744 20.337 14.2369C20.5071 14.0765 20.7194 13.9684 20.956 13.9272C21.0253 13.9151 21.0957 13.909 21.1652 13.909C21.7514 13.909 22.2496 14.3284 22.3497 14.9062C22.3613 14.9731 22.3672 15.0421 22.3673 15.1114C22.3676 15.3466 22.5474 15.5426 22.7816 15.5632C23.3243 15.6109 23.7683 16.019 23.8614 16.5557C23.8861 16.6984 23.883 16.8392 23.8582 16.974H23.371C23.1202 16.974 22.9169 17.1773 22.9169 17.4281C22.9169 17.6789 23.1202 17.8822 23.371 17.8822H26.9004C26.8891 18.7152 26.7818 19.5289 26.5817 20.3184L24.1208 21.7711C23.9702 21.2473 23.6204 20.8029 23.1384 20.5331C22.5978 20.2306 21.9553 20.1833 21.3759 20.4034L16.3074 22.3289C16.073 22.4179 15.9551 22.6802 16.0442 22.9147C16.1333 23.1492 16.3958 23.2669 16.6299 23.1779L17.2976 22.9243L17.5049 24.0436C17.5454 24.2622 17.7363 24.4151 17.9509 24.4151C17.9784 24.4151 18.0062 24.4126 18.0342 24.4074C18.2807 24.3618 18.4437 24.1249 18.398 23.8783L18.1606 22.5965L21.6983 21.2525C22.0261 21.128 22.3892 21.1547 22.6948 21.3258C22.9999 21.4965 23.2112 21.7907 23.2746 22.1329L24.1933 27.0926C24.2566 27.4346 24.1648 27.7842 23.9412 28.0517ZM25.5615 24.4972C25.3496 24.5362 25.1943 24.7185 25.1895 24.9339C25.1848 25.1492 25.332 25.3383 25.542 25.3864L28.9229 26.1619L28.8384 26.7285L24.919 26.0242L24.3063 22.7163L27.7202 20.7011L28.0046 21.2046L25.1251 23.1295C24.9461 23.2492 24.8757 23.4782 24.9567 23.6777C25.0377 23.8773 25.2478 23.9926 25.4596 23.9536L29.9828 23.1228L30.0835 23.6665L25.5615 24.4972Z" fill="#E84237"/>
<rect width="2.02255" height="2.23266" transform="matrix(0.999947 0.0103033 -0.00966949 0.999953 0.907349 17.7143)" fill="#161616"/>
</svg>
