<svg width="32" height="32" viewBox="0 0 32 32" fill="none" xmlns="http://www.w3.org/2000/svg">
<path d="M29 6C29.0657 6.00008 29.1307 5.98719 29.1914 5.96206C29.2521 5.93693 29.3072 5.90006 29.3536 5.85356L30.3536 4.85356C30.4474 4.75979 30.5 4.63261 30.5 4.5C30.5 4.36739 30.4474 4.24021 30.3536 4.14644C30.2598 4.05266 30.1326 3.99998 30 3.99998C29.8674 3.99998 29.7402 4.05266 29.6465 4.14644L28.6465 5.14644C28.5765 5.21636 28.5289 5.30545 28.5096 5.40245C28.4903 5.49944 28.5002 5.59998 28.5381 5.69134C28.5759 5.78271 28.64 5.8608 28.7222 5.91574C28.8045 5.97068 28.9011 6 29 6Z" fill="#E84237"/>
<path d="M28 14H25.414C25.4941 13.7737 25.5187 13.5315 25.4858 13.2938C25.4529 13.056 25.3634 12.8296 25.2249 12.6336C25.0864 12.4376 24.9028 12.2777 24.6897 12.1674C24.4765 12.057 24.24 11.9994 24 11.9994C23.76 11.9994 23.5234 12.057 23.3103 12.1674C23.0971 12.2777 22.9136 12.4376 22.7751 12.6336C22.6365 12.8296 22.547 13.056 22.5141 13.2938C22.4812 13.5315 22.5059 13.7737 22.586 14H14.5019L18.1857 10.9383C18.2951 10.9796 18.411 11.001 18.5279 11.0013C18.7394 11.0005 18.9452 10.9324 19.1154 10.8069L21 9.4375L22.8847 10.8068C23.0554 10.9308 23.261 10.9976 23.472 10.9976C23.683 10.9976 23.8885 10.9308 24.0592 10.8068C24.2299 10.6828 24.357 10.5079 24.4222 10.3073C24.4874 10.1066 24.4874 9.89047 24.4222 9.68981L23.7023 7.47406L25.5875 6.10475C25.7582 5.98072 25.8853 5.80582 25.9505 5.60513C26.0157 5.40444 26.0156 5.18826 25.9504 4.98758C25.8852 4.7869 25.7581 4.61202 25.5873 4.48802C25.4166 4.36402 25.211 4.29726 25 4.29731H22.6702L21.95 2.08162C21.8848 1.88097 21.7577 1.70611 21.587 1.5821C21.4163 1.45809 21.2107 1.3913 20.9997 1.3913C20.7887 1.3913 20.5832 1.45809 20.4125 1.5821C20.2418 1.70611 20.1147 1.88097 20.0495 2.08162L19.3298 4.29731H17C16.807 4.29516 16.6176 4.34995 16.4556 4.45483C16.2936 4.55971 16.166 4.71003 16.089 4.887C16.0676 4.89975 16.0471 4.91408 16.0279 4.92987L14.0245 6.59487C13.777 6.50212 13.5094 6.47647 13.2488 6.52052C12.9882 6.56457 12.7439 6.67676 12.5406 6.8457C12.3374 7.01465 12.1824 7.23434 12.0914 7.4825C12.0005 7.73066 11.9768 7.99847 12.0227 8.25875L1.18041 17.2702C1.12991 17.3122 1.08818 17.3637 1.05759 17.4218C1.02699 17.4799 1.00814 17.5434 1.00211 17.6088C0.996083 17.6742 1.00299 17.7401 1.02244 17.8028C1.04189 17.8655 1.0735 17.9238 1.11548 17.9743L4.31141 21.8196C4.39616 21.9215 4.51794 21.9857 4.64998 21.9979C4.66535 21.9993 4.68068 22 4.69598 22C4.81272 22 4.92579 21.9592 5.01554 21.8845L9.49998 18.1573V30.5C9.49998 30.6326 9.55266 30.7598 9.64642 30.8535C9.74019 30.9473 9.86737 31 9.99998 31H28C28.1326 31 28.2598 30.9473 28.3535 30.8535C28.4473 30.7598 28.5 30.6326 28.5 30.5V14.5C28.5 14.3674 28.4473 14.2402 28.3535 14.1464C28.2598 14.0527 28.1326 14 28 14ZM27.5 20H21.5V15H27.5V20ZM27.5 24H21.5V21H27.5V24ZM23.5 13.5C23.5 13.4011 23.5293 13.3044 23.5842 13.2222C23.6392 13.14 23.7173 13.0759 23.8086 13.0381C23.9 13.0002 24.0005 12.9903 24.0975 13.0096C24.1945 13.0289 24.2836 13.0765 24.3535 13.1464C24.4235 13.2164 24.4711 13.3055 24.4904 13.4024C24.5097 13.4994 24.4998 13.6 24.4619 13.6913C24.4241 13.7827 24.36 13.8608 24.2778 13.9157C24.1955 13.9707 24.0989 14 24 14C23.8674 13.9998 23.7403 13.9471 23.6466 13.8534C23.5529 13.7596 23.5001 13.6326 23.5 13.5ZM10.5 21H16.5V24H10.5V21ZM19.6931 5.29731C19.7987 5.2973 19.9016 5.26387 19.987 5.20181C20.0724 5.13974 20.136 5.05223 20.1686 4.95181L21 2.39306L21.8312 4.95181C21.8639 5.05223 21.9274 5.13974 22.0129 5.20181C22.0983 5.26387 22.2011 5.2973 22.3067 5.29731H24.9971L22.8205 6.87856C22.7352 6.94064 22.6716 7.02814 22.639 7.12855C22.6064 7.22895 22.6064 7.3371 22.639 7.4375L23.4703 9.99618L21.2937 8.415C21.2083 8.353 21.1055 8.31961 21 8.31961C20.8945 8.31961 20.7916 8.353 20.7062 8.415L18.5297 9.99625L19.3609 7.4375C19.3935 7.33709 19.3935 7.22893 19.3609 7.12853C19.3283 7.02812 19.2647 6.94062 19.1793 6.87856L17.0027 5.29731H19.6931ZM13.5 7.5C13.5862 7.49995 13.6711 7.52223 13.7462 7.56466C13.8213 7.60709 13.8841 7.66823 13.9286 7.74214C13.9731 7.81605 13.9977 7.90021 14.0001 7.98645C14.0024 8.07268 13.9824 8.15805 13.942 8.23427C13.9015 8.31048 13.8421 8.37494 13.7694 8.42137C13.6967 8.46781 13.6132 8.49465 13.5271 8.49928C13.4409 8.5039 13.3551 8.48617 13.2778 8.44779C13.2005 8.40941 13.1345 8.35169 13.0862 8.28025C13.0716 8.23149 13.0497 8.18526 13.0211 8.14318C12.9987 8.06855 12.994 7.98971 13.0075 7.91296C13.021 7.83621 13.0523 7.76368 13.0988 7.70117C13.1453 7.63867 13.2059 7.58792 13.2755 7.55299C13.3452 7.51805 13.4221 7.49991 13.5 7.5ZM4.76085 20.7959L2.2041 17.7197L12.5268 9.14006C12.7955 9.36998 13.1369 9.49748 13.4905 9.50001C13.8441 9.50254 14.1873 9.37994 14.4592 9.1539C14.7312 8.92785 14.9145 8.61291 14.9767 8.26477C15.0389 7.91663 14.9759 7.55772 14.799 7.2515L16.2969 6.00662C16.3331 6.0421 16.3718 6.07492 16.4128 6.10481L18.2976 7.47412L17.5777 9.68981C17.5264 9.84568 17.5139 10.0117 17.5414 10.1735L4.76085 20.7959ZM13.2987 15H16.5V20H10.5V17.3262L13.2987 15ZM10.5 25H16.5V30H10.5V25ZM17.5 30V15H20.5V30H17.5ZM21.5 30V25H27.5V30H21.5Z" fill="#E84237"/>
<path d="M18.1465 11.6464C18.1 11.6929 18.0632 11.748 18.0381 11.8086C18.0129 11.8693 18 11.9343 18 12C18 12.0657 18.0129 12.1307 18.0381 12.1913C18.0632 12.252 18.1 12.3071 18.1465 12.3536L18.6465 12.8536C18.6929 12.9 18.748 12.9368 18.8087 12.9619C18.8693 12.9871 18.9344 13 19 13C19.0657 13 19.1307 12.9871 19.1914 12.9619C19.252 12.9368 19.3072 12.9 19.3536 12.8536C19.4 12.8071 19.4368 12.752 19.462 12.6913C19.4871 12.6307 19.5 12.5657 19.5 12.5C19.5 12.4343 19.4871 12.3693 19.462 12.3086C19.4368 12.248 19.4 12.1929 19.3536 12.1464L18.8536 11.6464C18.8072 11.6 18.752 11.5632 18.6914 11.538C18.6307 11.5129 18.5657 11.5 18.5 11.5C18.4344 11.5 18.3693 11.5129 18.3087 11.538C18.248 11.5632 18.1929 11.6 18.1465 11.6464Z" fill="#E84237"/>
<path d="M17.1463 2.85356C17.2401 2.94733 17.3673 3.00001 17.4999 3.00001C17.6325 3.00001 17.7597 2.94733 17.8535 2.85356C17.9472 2.75979 17.9999 2.63261 17.9999 2.5C17.9999 2.36739 17.9472 2.24021 17.8535 2.14643L17.3535 1.64644C17.307 1.6 17.2519 1.56317 17.1912 1.53805C17.1306 1.51292 17.0656 1.49998 16.9999 1.49998C16.9342 1.49998 16.8692 1.51292 16.8085 1.53805C16.7479 1.56317 16.6928 1.6 16.6463 1.64644C16.5999 1.69287 16.5631 1.74799 16.5379 1.80865C16.5128 1.86932 16.4999 1.93433 16.4999 2C16.4999 2.06566 16.5128 2.13068 16.5379 2.19134C16.5631 2.25201 16.5999 2.30713 16.6463 2.35356L17.1463 2.85356Z" fill="#E84237"/>
<rect x="5.79395" y="13.0949" width="2.02044" height="1.34604" transform="rotate(-39.7052 5.79395 13.0949)" fill="#161616"/>
</svg>
