<svg width="108" height="78" viewBox="0 0 108 78" fill="none" xmlns="http://www.w3.org/2000/svg">
<path d="M2.664 36V10.8H18V13.284H5.688V22.14H16.164V24.588H5.688V36H2.664ZM35.6825 36.432C33.2105 36.432 31.0385 35.892 29.1665 34.812C27.3185 33.708 25.8665 32.172 24.8105 30.204C23.7785 28.236 23.2625 25.968 23.2625 23.4C23.2625 20.832 23.7785 18.576 24.8105 16.632C25.8665 14.664 27.3185 13.128 29.1665 12.024C31.0385 10.92 33.2105 10.368 35.6825 10.368C38.1785 10.368 40.3505 10.92 42.1985 12.024C44.0705 13.128 45.5225 14.664 46.5545 16.632C47.5865 18.576 48.1025 20.832 48.1025 23.4C48.1025 25.968 47.5865 28.236 46.5545 30.204C45.5225 32.172 44.0705 33.708 42.1985 34.812C40.3505 35.892 38.1785 36.432 35.6825 36.432ZM35.6825 33.768C37.5305 33.768 39.1505 33.36 40.5425 32.544C41.9585 31.704 43.0505 30.516 43.8185 28.98C44.6105 27.42 45.0065 25.56 45.0065 23.4C45.0065 21.24 44.6105 19.392 43.8185 17.856C43.0505 16.32 41.9585 15.144 40.5425 14.328C39.1505 13.488 37.5305 13.068 35.6825 13.068C33.8345 13.068 32.2025 13.488 30.7865 14.328C29.3945 15.144 28.3025 16.32 27.5105 17.856C26.7425 19.392 26.3585 21.24 26.3585 23.4C26.3585 25.56 26.7425 27.42 27.5105 28.98C28.3025 30.516 29.3945 31.704 30.7865 32.544C32.2025 33.36 33.8345 33.768 35.6825 33.768ZM66.2529 36.432C63.7809 36.432 61.6089 35.892 59.7369 34.812C57.8889 33.708 56.4369 32.172 55.3809 30.204C54.3489 28.236 53.8329 25.968 53.8329 23.4C53.8329 20.832 54.3489 18.576 55.3809 16.632C56.4369 14.664 57.8889 13.128 59.7369 12.024C61.6089 10.92 63.7809 10.368 66.2529 10.368C68.7489 10.368 70.9209 10.92 72.7689 12.024C74.6409 13.128 76.0929 14.664 77.1249 16.632C78.1569 18.576 78.6729 20.832 78.6729 23.4C78.6729 25.968 78.1569 28.236 77.1249 30.204C76.0929 32.172 74.6409 33.708 72.7689 34.812C70.9209 35.892 68.7489 36.432 66.2529 36.432ZM66.2529 33.768C68.1009 33.768 69.7209 33.36 71.1129 32.544C72.5289 31.704 73.6209 30.516 74.3889 28.98C75.1809 27.42 75.5769 25.56 75.5769 23.4C75.5769 21.24 75.1809 19.392 74.3889 17.856C73.6209 16.32 72.5289 15.144 71.1129 14.328C69.7209 13.488 68.1009 13.068 66.2529 13.068C64.4049 13.068 62.7729 13.488 61.3569 14.328C59.9649 15.144 58.8729 16.32 58.0809 17.856C57.3129 19.392 56.9289 21.24 56.9289 23.4C56.9289 25.56 57.3129 27.42 58.0809 28.98C58.8729 30.516 59.9649 31.704 61.3569 32.544C62.7729 33.36 64.4049 33.768 66.2529 33.768ZM85.3754 36V10.8H93.1154C97.5554 10.8 100.819 11.928 102.907 14.184C105.019 16.44 106.075 19.536 106.075 23.472C106.075 27.336 105.019 30.396 102.907 32.652C100.819 34.884 97.5554 36 93.1154 36H85.3754ZM88.3994 33.48H93.0434C95.4914 33.48 97.4354 33.084 98.8754 32.292C100.339 31.476 101.383 30.324 102.007 28.836C102.631 27.324 102.943 25.536 102.943 23.472C102.943 21.36 102.631 19.548 102.007 18.036C101.383 16.524 100.339 15.36 98.8754 14.544C97.4354 13.728 95.4914 13.32 93.0434 13.32H88.3994V33.48Z" fill="white"/>
<path d="M2.664 67V41.8H5.688V52.924H18.756V41.8H21.78V67H18.756V55.408H5.688V67H2.664ZM39.9856 67.432C37.5136 67.432 35.3416 66.892 33.4696 65.812C31.6216 64.708 30.1696 63.172 29.1136 61.204C28.0816 59.236 27.5656 56.968 27.5656 54.4C27.5656 51.832 28.0816 49.576 29.1136 47.632C30.1696 45.664 31.6216 44.128 33.4696 43.024C35.3416 41.92 37.5136 41.368 39.9856 41.368C42.4816 41.368 44.6536 41.92 46.5016 43.024C48.3736 44.128 49.8256 45.664 50.8576 47.632C51.8896 49.576 52.4056 51.832 52.4056 54.4C52.4056 56.968 51.8896 59.236 50.8576 61.204C49.8256 63.172 48.3736 64.708 46.5016 65.812C44.6536 66.892 42.4816 67.432 39.9856 67.432ZM39.9856 64.768C41.8336 64.768 43.4536 64.36 44.8456 63.544C46.2616 62.704 47.3536 61.516 48.1216 59.98C48.9136 58.42 49.3096 56.56 49.3096 54.4C49.3096 52.24 48.9136 50.392 48.1216 48.856C47.3536 47.32 46.2616 46.144 44.8456 45.328C43.4536 44.488 41.8336 44.068 39.9856 44.068C38.1376 44.068 36.5056 44.488 35.0896 45.328C33.6976 46.144 32.6056 47.32 31.8136 48.856C31.0456 50.392 30.6616 52.24 30.6616 54.4C30.6616 56.56 31.0456 58.42 31.8136 59.98C32.6056 61.516 33.6976 62.704 35.0896 63.544C36.5056 64.36 38.1376 64.768 39.9856 64.768ZM58.2081 67V41.8H61.7361L70.8081 59.368L79.8081 41.8H83.3721V67H80.3481V47.2L71.9241 63.4H69.6561L61.2321 47.236V67H58.2081ZM90.1285 67V41.8H105.717V44.284H93.1525V53.068H104.637V55.516H93.1525V64.516H105.717V67H90.1285Z" fill="white"/>
<path d="M2.664 67H1.664V68H2.664V67ZM2.664 41.8V40.8H1.664V41.8H2.664ZM5.688 41.8H6.688V40.8H5.688V41.8ZM5.688 52.924H4.688V53.924H5.688V52.924ZM18.756 52.924V53.924H19.756V52.924H18.756ZM18.756 41.8V40.8H17.756V41.8H18.756ZM21.78 41.8H22.78V40.8H21.78V41.8ZM21.78 67V68H22.78V67H21.78ZM18.756 67H17.756V68H18.756V67ZM18.756 55.408H19.756V54.408H18.756V55.408ZM5.688 55.408V54.408H4.688V55.408H5.688ZM5.688 67V68H6.688V67H5.688ZM3.664 67V41.8H1.664V67H3.664ZM2.664 42.8H5.688V40.8H2.664V42.8ZM4.688 41.8V52.924H6.688V41.8H4.688ZM5.688 53.924H18.756V51.924H5.688V53.924ZM19.756 52.924V41.8H17.756V52.924H19.756ZM18.756 42.8H21.78V40.8H18.756V42.8ZM20.78 41.8V67H22.78V41.8H20.78ZM21.78 66H18.756V68H21.78V66ZM19.756 67V55.408H17.756V67H19.756ZM18.756 54.408H5.688V56.408H18.756V54.408ZM4.688 55.408V67H6.688V55.408H4.688ZM5.688 66H2.664V68H5.688V66ZM33.4696 65.812L32.9567 66.6705L32.9633 66.6744L32.9699 66.6782L33.4696 65.812ZM29.1136 61.204L28.2279 61.6684L28.2324 61.6768L29.1136 61.204ZM29.1136 47.632L28.2324 47.1592L28.2303 47.1631L29.1136 47.632ZM33.4696 43.024L32.9616 42.1626L32.9567 42.1655L33.4696 43.024ZM46.5016 43.024L45.9887 43.8825L45.9936 43.8854L46.5016 43.024ZM50.8576 47.632L49.972 48.0964L49.9743 48.1009L50.8576 47.632ZM50.8576 61.204L49.972 60.7396V60.7396L50.8576 61.204ZM46.5016 65.812L47.0062 66.6754L47.0096 66.6734L46.5016 65.812ZM44.8456 63.544L45.3513 64.4067L45.3558 64.4041L44.8456 63.544ZM48.1216 59.98L47.2299 59.5273L47.2272 59.5328L48.1216 59.98ZM48.1216 48.856L47.2271 49.3032L47.2328 49.3143L48.1216 48.856ZM44.8456 45.328L44.3289 46.1842L44.3376 46.1894L44.3463 46.1944L44.8456 45.328ZM35.0896 45.328L35.5953 46.1907L35.5998 46.1881L35.0896 45.328ZM31.8136 48.856L30.9247 48.3977L30.9192 48.4088L31.8136 48.856ZM31.8136 59.98L30.9164 60.4217L30.9205 60.43L30.9248 60.4383L31.8136 59.98ZM35.0896 63.544L34.5729 64.4002L34.5816 64.4054L34.5903 64.4104L35.0896 63.544ZM39.9856 66.432C37.6634 66.432 35.6686 65.9262 33.9693 64.9458L32.9699 66.6782C35.0146 67.8578 37.3638 68.432 39.9856 68.432V66.432ZM33.9824 64.9535C32.2959 63.9459 30.9685 62.5459 29.9948 60.7312L28.2324 61.6768C29.3707 63.7981 30.9473 65.4701 32.9567 66.6705L33.9824 64.9535ZM29.9992 60.7396C29.0533 58.9357 28.5656 56.8315 28.5656 54.4H26.5656C26.5656 57.1045 27.1099 59.5363 28.228 61.6684L29.9992 60.7396ZM28.5656 54.4C28.5656 51.9681 29.0534 49.8781 29.9969 48.1009L28.2303 47.1631C27.1098 49.2739 26.5656 51.6958 26.5656 54.4H28.5656ZM29.9948 48.1048C30.9685 46.2901 32.2959 44.89 33.9824 43.8825L32.9567 42.1655C30.9473 43.366 29.3707 45.0379 28.2324 47.1592L29.9948 48.1048ZM33.9776 43.8854C35.6755 42.8841 37.6672 42.368 39.9856 42.368V40.368C37.36 40.368 35.0077 40.9559 32.9616 42.1626L33.9776 43.8854ZM39.9856 42.368C42.3302 42.368 44.3191 42.885 45.9887 43.8825L47.0145 42.1655C44.9881 40.955 42.633 40.368 39.9856 40.368V42.368ZM45.9936 43.8854C47.7015 44.8926 49.0244 46.2894 49.972 48.0964L51.7432 47.1676C50.6268 45.0386 49.0457 43.3634 47.0096 42.1626L45.9936 43.8854ZM49.9743 48.1009C50.9178 49.8781 51.4056 51.9681 51.4056 54.4H53.4056C53.4056 51.6958 52.8614 49.2739 51.7409 47.1631L49.9743 48.1009ZM51.4056 54.4C51.4056 56.8315 50.9179 58.9357 49.972 60.7396L51.7432 61.6684C52.8613 59.5363 53.4056 57.1045 53.4056 54.4H51.4056ZM49.972 60.7396C49.0244 62.5466 47.7015 63.9434 45.9936 64.9506L47.0096 66.6734C49.0457 65.4726 50.6268 63.7974 51.7432 61.6684L49.972 60.7396ZM45.997 64.9486C44.3259 65.9252 42.334 66.432 39.9856 66.432V68.432C42.6291 68.432 44.9813 67.8588 47.0062 66.6754L45.997 64.9486ZM39.9856 65.768C41.9851 65.768 43.7848 65.325 45.3513 64.4067L44.3399 62.6813C43.1224 63.395 41.6821 63.768 39.9856 63.768V65.768ZM45.3558 64.4041C46.9442 63.4618 48.1661 62.1271 49.016 60.4272L47.2272 59.5328C46.5411 60.9049 45.579 61.9462 44.3354 62.6839L45.3558 64.4041ZM49.0133 60.4327C49.8913 58.7033 50.3096 56.6811 50.3096 54.4H48.3096C48.3096 56.4389 47.9359 58.1367 47.2299 59.5273L49.0133 60.4327ZM50.3096 54.4C50.3096 52.1196 49.8915 50.1064 49.0104 48.3977L47.2328 49.3143C47.9357 50.6775 48.3096 52.3604 48.3096 54.4H50.3096ZM49.016 48.4088C48.165 46.7067 46.9398 45.3806 45.3449 44.4616L44.3463 46.1944C45.5834 46.9074 46.5422 47.9333 47.2272 49.3032L49.016 48.4088ZM45.3623 44.4718C43.7939 43.5254 41.9903 43.068 39.9856 43.068V45.068C41.6769 45.068 43.1133 45.4506 44.3289 46.1842L45.3623 44.4718ZM39.9856 43.068C37.9806 43.068 36.1681 43.5255 34.5794 44.4679L35.5998 46.1881C36.8431 45.4505 38.2946 45.068 39.9856 45.068V43.068ZM34.5839 44.4653C33.0167 45.384 31.7972 46.7058 30.9248 48.3977L32.7024 49.3143C33.414 47.9342 34.3784 46.904 35.5953 46.1907L34.5839 44.4653ZM30.9192 48.4088C30.0662 50.1148 29.6616 52.1238 29.6616 54.4H31.6616C31.6616 52.3562 32.025 50.6692 32.708 49.3032L30.9192 48.4088ZM29.6616 54.4C29.6616 56.6769 30.0664 58.6951 30.9164 60.4217L32.7108 59.5383C32.0248 58.1449 31.6616 56.4431 31.6616 54.4H29.6616ZM30.9248 60.4383C31.7961 62.128 33.0124 63.4585 34.5729 64.4002L35.6063 62.6878C34.3828 61.9495 33.4151 60.904 32.7024 59.5217L30.9248 60.4383ZM34.5903 64.4104C36.1772 65.3249 37.9857 65.768 39.9856 65.768V63.768C38.2895 63.768 36.834 63.3951 35.5889 62.6776L34.5903 64.4104ZM58.2081 67H57.2081V68H58.2081V67ZM58.2081 41.8V40.8H57.2081V41.8H58.2081ZM61.7361 41.8L62.6246 41.3412L62.3451 40.8H61.7361V41.8ZM70.8081 59.368L69.9195 59.8268L70.8116 61.5543L71.6981 59.8239L70.8081 59.368ZM79.8081 41.8V40.8H79.1968L78.9181 41.3441L79.8081 41.8ZM83.3721 41.8H84.3721V40.8H83.3721V41.8ZM83.3721 67V68H84.3721V67H83.3721ZM80.3481 67H79.3481V68H80.3481V67ZM80.3481 47.2H81.3481L79.4608 46.7386L80.3481 47.2ZM71.9241 63.4V64.4H72.5312L72.8113 63.8614L71.9241 63.4ZM69.6561 63.4L68.7693 63.8622L69.0496 64.4H69.6561V63.4ZM61.2321 47.236L62.1189 46.7738L60.2321 47.236H61.2321ZM61.2321 67V68H62.2321V67H61.2321ZM59.2081 67V41.8H57.2081V67H59.2081ZM58.2081 42.8H61.7361V40.8H58.2081V42.8ZM60.8475 42.2588L69.9195 59.8268L71.6966 58.9092L62.6246 41.3412L60.8475 42.2588ZM71.6981 59.8239L80.6981 42.2559L78.9181 41.3441L69.9181 58.9121L71.6981 59.8239ZM79.8081 42.8H83.3721V40.8H79.8081V42.8ZM82.3721 41.8V67H84.3721V41.8H82.3721ZM83.3721 66H80.3481V68H83.3721V66ZM81.3481 67V47.2H79.3481V67H81.3481ZM79.4608 46.7386L71.0368 62.9386L72.8113 63.8614L81.2353 47.6614L79.4608 46.7386ZM71.9241 62.4H69.6561V64.4H71.9241V62.4ZM70.5429 62.9378L62.1189 46.7738L60.3453 47.6982L68.7693 63.8622L70.5429 62.9378ZM60.2321 47.236V67H62.2321V47.236H60.2321ZM61.2321 66H58.2081V68H61.2321V66ZM90.1285 67H89.1285V68H90.1285V67ZM90.1285 41.8V40.8H89.1285V41.8H90.1285ZM105.717 41.8H106.717V40.8H105.717V41.8ZM105.717 44.284V45.284H106.717V44.284H105.717ZM93.1525 44.284V43.284H92.1525V44.284H93.1525ZM93.1525 53.068H92.1525V54.068H93.1525V53.068ZM104.637 53.068H105.637V52.068H104.637V53.068ZM104.637 55.516V56.516H105.637V55.516H104.637ZM93.1525 55.516V54.516H92.1525V55.516H93.1525ZM93.1525 64.516H92.1525V65.516H93.1525V64.516ZM105.717 64.516H106.717V63.516H105.717V64.516ZM105.717 67V68H106.717V67H105.717ZM91.1285 67V41.8H89.1285V67H91.1285ZM90.1285 42.8H105.717V40.8H90.1285V42.8ZM104.717 41.8V44.284H106.717V41.8H104.717ZM105.717 43.284H93.1525V45.284H105.717V43.284ZM92.1525 44.284V53.068H94.1525V44.284H92.1525ZM93.1525 54.068H104.637V52.068H93.1525V54.068ZM103.637 53.068V55.516H105.637V53.068H103.637ZM104.637 54.516H93.1525V56.516H104.637V54.516ZM92.1525 55.516V64.516H94.1525V55.516H92.1525ZM93.1525 65.516H105.717V63.516H93.1525V65.516ZM104.717 64.516V67H106.717V64.516H104.717ZM105.717 66H90.1285V68H105.717V66Z" fill="#E84237"/>
<circle cx="53" cy="39" r="17" fill="#E84237" stroke="#161616" stroke-width="4"/>
<path d="M41.414 45L46.022 32.4H48.614L53.222 45H50.774L49.766 42.084H44.852L43.826 45H41.414ZM45.482 40.284H49.136L47.3 35.046L45.482 40.284ZM57.1632 45V34.254H53.4912V32.4H63.1572V34.254H59.4672V45H57.1632Z" fill="white"/>
</svg>
