<svg width="31" height="31" viewBox="0 0 31 31" fill="none" xmlns="http://www.w3.org/2000/svg">
<g clip-path="url(#clip0)">
<path d="M23.3336 6.22542C23.5845 6.22542 23.7877 6.02217 23.7877 5.77132V5.16089C23.7877 4.91004 23.5845 4.70679 23.3336 4.70679C23.0828 4.70679 22.8795 4.91004 22.8795 5.16089V5.77132C22.8795 6.02211 23.0828 6.22542 23.3336 6.22542Z" fill="#E84237"/>
<path d="M28.2742 10.2577C28.0233 10.2577 27.8201 10.461 27.8201 10.7118C27.8201 10.9627 28.0233 11.1659 28.2742 11.1659H28.8845C29.1354 11.1659 29.3386 10.9627 29.3386 10.7118C29.3386 10.461 29.1354 10.2577 28.8845 10.2577H28.2742Z" fill="#E84237"/>
<path d="M17.7826 10.2577C17.5317 10.2577 17.3285 10.461 17.3285 10.7118C17.3285 10.9627 17.5317 11.1659 17.7826 11.1659H18.393C18.6439 11.1659 18.8471 10.9627 18.8471 10.7118C18.8471 10.461 18.6439 10.2577 18.393 10.2577H17.7826Z" fill="#E84237"/>
<path d="M25.3252 24.7629C24.5187 24.7629 23.8625 25.419 23.8625 26.2254C23.8625 27.0319 24.5187 27.688 25.3252 27.688C26.1316 27.688 26.7878 27.0319 26.7878 26.2254C26.7878 25.419 26.1316 24.7629 25.3252 24.7629ZM25.3252 26.7798C25.0194 26.7798 24.7708 26.5311 24.7708 26.2254C24.7708 25.9197 25.0194 25.6711 25.3252 25.6711C25.6309 25.6711 25.8795 25.9197 25.8795 26.2254C25.8795 26.5311 25.6309 26.7798 25.3252 26.7798Z" fill="#E84237"/>
<path d="M8.74451 26.2254C8.74451 27.0319 9.40065 27.688 10.2071 27.688C11.0136 27.688 11.6697 27.0319 11.6697 26.2254C11.6697 25.419 11.0136 24.7629 10.2071 24.7629C9.40065 24.7629 8.74451 25.419 8.74451 26.2254ZM10.7615 26.2254C10.7615 26.5311 10.5128 26.7798 10.2071 26.7798C9.90144 26.7798 9.65271 26.5311 9.65271 26.2254C9.65271 25.9197 9.90144 25.6711 10.2071 25.6711C10.5128 25.6711 10.7615 25.9197 10.7615 26.2254Z" fill="#E84237"/>
<path d="M22.8795 10.7118C22.8795 10.9627 23.0828 11.1659 23.3336 11.1659H24.8779C25.1288 11.1659 25.332 10.9627 25.332 10.7118C25.332 10.461 25.1288 10.2577 24.8779 10.2577H23.7877V7.42981C23.7877 7.17896 23.5845 6.97571 23.3336 6.97571C23.0828 6.97571 22.8795 7.17896 22.8795 7.42981V10.7118Z" fill="#E84237"/>
<path d="M27.6099 17.0745C29.7139 15.657 31 13.2683 31 10.7118C31 9.49671 30.7236 8.33403 30.1784 7.25623C30.0652 7.03245 29.792 6.94278 29.5682 7.05594C29.3445 7.16911 29.2547 7.44235 29.368 7.66607C29.8482 8.61569 30.0918 9.64045 30.0918 10.7118C30.0918 13.011 28.9115 15.1561 26.9895 16.3955L24.3457 13.5025C24.0386 13.1663 23.6013 12.9736 23.146 12.9736H16.9638C16.7062 12.249 16.5754 11.4896 16.5754 10.7118C16.5754 6.98529 19.6071 3.95364 23.3336 3.95364C25.2666 3.95364 27.1112 4.78459 28.3943 6.23341C28.5604 6.42111 28.8474 6.43867 29.0353 6.27228C29.2231 6.10602 29.2405 5.81903 29.0742 5.63128C28.4071 4.87795 27.6058 4.27248 26.7227 3.83697V2.29902C26.7227 1.74017 26.268 1.28552 25.7092 1.28552H20.9581C20.3993 1.28552 19.9446 1.74017 19.9446 2.29902V3.83654C17.4126 5.08974 15.6672 7.70053 15.6672 10.7118C15.6672 11.4858 15.7818 12.2438 16.0073 12.9736H4.42767C3.84842 12.9736 3.37258 13.4214 3.32614 13.989H1.66504C1.41425 13.989 1.21094 14.1922 1.21094 14.4431C1.21094 14.6939 1.41425 14.8972 1.66504 14.8972H3.32154V19.2864H0.454102C0.203316 19.2864 0 19.4896 0 19.7405C0 19.9913 0.203316 20.1946 0.454102 20.1946H3.32154V21.5228C3.07275 21.5251 2.87168 21.7273 2.87168 21.9766C2.87168 22.226 3.07269 22.4282 3.32154 22.4305V25.6426C3.32154 26.1194 3.7094 26.5072 4.18609 26.5072H5.40787V26.8233H3.99107C3.74028 26.8233 3.53697 27.0265 3.53697 27.2774C3.53697 27.5282 3.74028 27.7315 3.99107 27.7315H5.86197C6.11275 27.7315 6.31607 27.5282 6.31607 27.2774V26.5072H6.73039C6.87449 28.2996 8.37817 29.7143 10.2071 29.7143C10.8106 29.7143 11.4064 29.5569 11.9299 29.259C12.1479 29.1349 12.224 28.8577 12.1 28.6397C11.976 28.4217 11.6988 28.3457 11.4807 28.4696C11.0938 28.6898 10.6533 28.8061 10.2071 28.8061C8.78402 28.8061 7.62624 27.6484 7.62624 26.2253C7.62624 24.8022 8.78402 23.6445 10.2071 23.6445C11.6301 23.6445 12.7879 24.8022 12.7879 26.2253C12.7879 26.6133 12.7038 26.9865 12.5379 27.3344C12.4299 27.5608 12.526 27.8318 12.7523 27.9397C12.9788 28.0476 13.2497 27.9516 13.3577 27.7253C13.5417 27.3393 13.65 26.9306 13.6836 26.5072H21.8486C21.9927 28.2996 23.4964 29.7143 25.3252 29.7143C27.1541 29.7143 28.6577 28.2996 28.8019 26.5072H29.7367C30.4333 26.5072 31 25.9405 31 25.2439V21.4131C31 21.0073 30.8493 20.6189 30.5756 20.3195L27.6099 17.0745ZM20.8528 2.29902C20.8528 2.24095 20.9001 2.19373 20.9581 2.19373H25.7092C25.7672 2.19373 25.8145 2.24095 25.8145 2.29902V3.45946C25.0237 3.18863 24.1864 3.0455 23.3336 3.0455C22.4658 3.0455 21.6313 3.19069 20.8528 3.45764V2.29902H20.8528ZM23.6753 14.1152L28.401 19.2864H25.0136C24.7628 19.2864 24.5595 19.4896 24.5595 19.7405C24.5595 19.9913 24.7628 20.1946 25.0136 20.1946H29.231L29.9052 20.9323C30.1801 21.2331 30.0646 21.5595 30.0918 21.9059H29.7417C29.4909 21.9059 29.2876 22.1092 29.2876 22.36C29.2876 22.6109 29.4909 22.8141 29.7417 22.8141H30.0918V23.4861H27.4822C26.8881 23.0173 26.1391 22.7364 25.3253 22.7364C24.5116 22.7364 23.7625 23.0173 23.1684 23.4861H18.2207V13.8819H20.1792V19.2807C20.1792 19.7846 20.5892 20.1946 21.0931 20.1946H23.1982C23.449 20.1946 23.6523 19.9914 23.6523 19.7405C23.6523 19.4897 23.449 19.2864 23.1982 19.2864H21.0931C21.09 19.2864 21.0874 19.2838 21.0874 19.2807V13.8819H23.1462C23.3469 13.8819 23.5398 13.9669 23.6753 14.1152ZM21.8936 25.5991H18.2206V24.3943H22.3571C22.1323 24.7572 21.9728 25.1642 21.8936 25.5991ZM13.1752 24.3943H17.3124V25.5991H13.6386C13.5594 25.1642 13.3999 24.7572 13.1752 24.3943ZM4.22974 24.3943H7.2388C7.01405 24.7572 6.85457 25.1642 6.77538 25.5991H4.22974V24.3943ZM8.05013 23.4861H4.22974V22.4308H6.19752C6.4483 22.4308 6.65162 22.2275 6.65162 21.9767C6.65162 21.7258 6.4483 21.5226 6.19752 21.5226H4.22974V20.1946H6.19752C6.4483 20.1946 6.65162 19.9913 6.65162 19.7405C6.65162 19.4896 6.4483 19.2864 6.19752 19.2864H4.22974V14.0798C4.22974 13.9706 4.31851 13.8818 4.42767 13.8818H17.3124V23.486H12.3639C11.7698 23.0172 11.0208 22.7364 10.2071 22.7364C9.3933 22.7364 8.64428 23.0173 8.05013 23.4861ZM25.3252 28.8063C23.9021 28.8063 22.7444 27.6485 22.7444 26.2255C22.7444 24.8024 23.9021 23.6446 25.3252 23.6446C26.7483 23.6446 27.9061 24.8024 27.9061 26.2255C27.9061 27.6485 26.7483 28.8063 25.3252 28.8063ZM29.7366 25.5991H28.7568C28.6776 25.1642 28.5181 24.7572 28.2934 24.3943H30.0918V25.244C30.0918 25.4398 29.9325 25.5991 29.7366 25.5991Z" fill="#E84237"/>
</g>
<defs>
<clipPath id="clip0">
<rect width="31" height="31" fill="white"/>
</clipPath>
</defs>
</svg>
