<svg width="31" height="31" viewBox="0 0 31 31" fill="none" xmlns="http://www.w3.org/2000/svg">
<path d="M2.42188 15.0156C2.42186 15.037 2.42328 15.0584 2.42611 15.0797L4.25154 28.7702C4.29898 29.1188 4.47094 29.4385 4.73567 29.6703C5.0004 29.9021 5.34003 30.0303 5.69189 30.0312H26.1562C26.5415 30.0308 26.9109 29.8776 27.1833 29.6052C27.4557 29.3327 27.6089 28.9634 27.6094 28.5781V26.6727L29.5426 12.1734C29.5426 12.1713 29.5426 12.1693 29.5431 12.1674C29.5443 12.1576 29.5449 12.1476 29.5455 12.1376C29.5459 12.1304 29.5465 12.1232 29.5466 12.1159C29.5466 12.1138 29.5466 12.1117 29.5466 12.1099V10.1719C29.5466 10.0434 29.4955 9.9202 29.4047 9.82937C29.3139 9.73853 29.1907 9.6875 29.0622 9.6875H19.375C19.2465 9.6875 19.1233 9.73853 19.0325 9.82937C18.9417 9.9202 18.8906 10.0434 18.8906 10.1719V12.1094C18.8906 12.1116 18.8906 12.1136 18.8906 12.1154C18.8906 12.1227 18.8913 12.1299 18.8917 12.1372C18.8923 12.1472 18.8929 12.1571 18.8941 12.1669C18.8941 12.169 18.8941 12.171 18.8946 12.1729L19.7876 18.8703C18.8137 18.7963 18.5127 18.5328 18.4245 18.4092C18.3931 18.3648 18.3721 18.3139 18.3631 18.2602C18.3541 18.2066 18.3573 18.1516 18.3724 18.0993C18.4051 18.0276 18.419 17.9487 18.4126 17.8701C18.4062 17.7915 18.3799 17.7158 18.3361 17.6503C18.2906 17.5827 18.2288 17.5278 18.1563 17.4906C18.0839 17.4534 18.0033 17.4351 17.9219 17.4375C16.9582 17.4375 16.2154 17.6252 15.6035 17.9041L15.9801 15.0797C15.983 15.0584 15.9844 15.037 15.9844 15.0156C15.9835 13.855 15.6621 12.7171 15.0558 11.7275C14.4494 10.7378 13.5817 9.93479 12.548 9.40686C12.5894 9.31852 12.603 9.21974 12.5872 9.1235L12.1028 6.21725C12.0839 6.10415 12.0256 6.00141 11.9381 5.92729C11.8506 5.85318 11.7397 5.8125 11.625 5.8125H11.1406V3.875H14.5312C14.6597 3.875 14.7829 3.82397 14.8738 3.73313C14.9646 3.64229 15.0156 3.51909 15.0156 3.39062V1.45312C15.0156 1.3868 15.002 1.32119 14.9756 1.26035C14.9492 1.19951 14.9106 1.14473 14.8622 1.09942C14.8137 1.05412 14.7565 1.01923 14.6941 0.996944C14.6316 0.974653 14.5652 0.965427 14.499 0.969837L7.23341 1.45421C7.13747 1.46061 7.04561 1.49542 6.96951 1.55421C6.89342 1.61299 6.83655 1.69309 6.80613 1.78431L6.32176 3.23744C6.29749 3.31025 6.29087 3.38778 6.30244 3.46366C6.31401 3.53953 6.34344 3.61156 6.38832 3.67383C6.43319 3.73609 6.49222 3.7868 6.56054 3.82178C6.62885 3.85675 6.7045 3.87499 6.78125 3.875H7.26562V5.8125H6.78125C6.66659 5.8125 6.55565 5.85318 6.46816 5.92729C6.38068 6.00141 6.32232 6.10415 6.30347 6.21725L5.8191 9.1235C5.80326 9.21974 5.8169 9.31852 5.85821 9.40686C4.8246 9.93479 3.9568 10.7378 3.35046 11.7275C2.74413 12.7171 2.42279 13.855 2.42188 15.0156ZM22.2812 29.0625H10.5937C10.4819 29.0624 10.3746 29.0179 10.2956 28.9388C10.2165 28.8597 10.172 28.7525 10.1719 28.6407V23.6718C10.172 23.56 10.2165 23.4528 10.2956 23.3737C10.3746 23.2946 10.4819 23.2501 10.5937 23.25H22.3438C22.4556 23.2501 22.5629 23.2946 22.642 23.3737C22.721 23.4528 22.7655 23.56 22.7656 23.6718V28.6407C22.7655 28.7525 22.721 28.8597 22.642 28.9388C22.5629 29.0179 22.4556 29.0624 22.3438 29.0625H22.2812ZM11.625 21.3125H21.3125V22.2812H11.625V21.3125ZM26.6406 28.5781C26.6405 28.7065 26.5894 28.8297 26.4986 28.9205C26.4078 29.0113 26.2847 29.0623 26.1562 29.0625H23.6688C23.7123 28.9261 23.7344 28.7838 23.7344 28.6407V27.125H26.6406V28.5781ZM26.7012 26.1562H23.7344V23.6718C23.734 23.3031 23.5873 22.9497 23.3266 22.689C23.0659 22.4283 22.7125 22.2817 22.3438 22.2812H22.2812V20.8281C22.2812 20.8146 22.2803 20.8012 22.2793 20.7879C22.2793 20.786 22.2788 20.7826 22.2785 20.7796V20.7779C22.242 20.4605 22.146 20.1527 21.9955 19.8708C21.8741 19.6339 21.7015 19.4271 21.4901 19.2653C21.2788 19.1036 21.034 18.9909 20.7736 18.9357L19.9282 12.5937H28.5093L26.7012 26.1562ZM19.8594 10.6562H28.5781V11.625H19.8594V10.6562ZM17.6142 18.9404C18.0238 19.5502 18.9421 19.8594 20.3438 19.8594C20.707 19.8594 20.9573 20.0028 21.1321 20.3109C21.1381 20.3218 21.1442 20.3328 21.1498 20.3437H13.8665C14.0732 20.1854 14.2701 20.019 14.4652 19.8539C15.2539 19.1865 16.0034 18.5522 17.4081 18.4281C17.4393 18.6117 17.5096 18.7864 17.6142 18.9404ZM7.62231 2.39917L14.0469 1.97086V2.90625H7.45332L7.62231 2.39917ZM8.23438 3.875H10.1719V5.8125H8.23438V3.875ZM6.86868 8.71875L7.19158 6.78125H11.2147L11.5376 8.71875H6.86868ZM8.71875 9.6875H9.6875C11.0947 9.68906 12.4442 10.2466 13.4422 11.2387C14.4402 12.2308 15.0057 13.577 15.0156 14.9841L14.5407 18.5455C14.2914 18.732 14.0618 18.9261 13.8394 19.1143C13.06 19.7741 12.3866 20.3437 11.1406 20.3437C11.0122 20.3437 10.889 20.3948 10.7981 20.4856C10.7073 20.5765 10.6562 20.6997 10.6562 20.8281V22.2812H10.5937C10.225 22.2817 9.87157 22.4283 9.61088 22.689C9.35018 22.9497 9.20354 23.3031 9.20312 23.6718V28.6407C9.20308 28.7838 9.22519 28.9261 9.2687 29.0625H5.69189C5.5746 29.0622 5.46139 29.0194 5.37315 28.9422C5.2849 28.8649 5.22758 28.7583 5.21175 28.6421L4.30119 21.8131L3.39063 14.9841C3.40053 13.577 3.96606 12.2308 4.96403 11.2387C5.96201 10.2466 7.31157 9.68906 8.71875 9.6875Z" fill="#E84237"/>
<path d="M16.4688 24.2188C16.0856 24.2188 15.711 24.3324 15.3923 24.5453C15.0737 24.7582 14.8254 25.0608 14.6787 25.4148C14.5321 25.7688 14.4937 26.1584 14.5685 26.5342C14.6432 26.9101 14.8278 27.2553 15.0987 27.5263C15.3697 27.7972 15.7149 27.9818 16.0908 28.0565C16.4666 28.1313 16.8562 28.0929 17.2102 27.9463C17.5642 27.7996 17.8668 27.5513 18.0797 27.2327C18.2926 26.9141 18.4063 26.5395 18.4063 26.1563C18.4057 25.6426 18.2014 25.1501 17.8381 24.7869C17.4749 24.4236 16.9824 24.2193 16.4688 24.2188ZM16.4688 27.125C16.2772 27.125 16.0899 27.0682 15.9305 26.9617C15.7712 26.8553 15.6471 26.704 15.5737 26.527C15.5004 26.35 15.4812 26.1552 15.5186 25.9673C15.556 25.7793 15.6483 25.6067 15.7837 25.4712C15.9192 25.3358 16.0918 25.2435 16.2798 25.2061C16.4677 25.1687 16.6625 25.1879 16.8395 25.2612C17.0165 25.3346 17.1678 25.4587 17.2742 25.618C17.3807 25.7774 17.4375 25.9647 17.4375 26.1563C17.4372 26.4131 17.335 26.6593 17.1534 26.8409C16.9718 27.0225 16.7256 27.1247 16.4688 27.125Z" fill="#E84237"/>
<path d="M24.2188 17.4375C25.5992 17.4375 26.6406 16.8128 26.6406 15.9844C26.6406 15.1559 25.5992 14.5312 24.2188 14.5312C22.8383 14.5312 21.7969 15.1559 21.7969 15.9844C21.7969 16.8128 22.8383 17.4375 24.2188 17.4375ZM24.2188 15.5C25.1565 15.5 25.6719 15.8638 25.6719 15.9844C25.6719 16.1049 25.1565 16.4688 24.2188 16.4688C23.281 16.4688 22.7656 16.1049 22.7656 15.9844C22.7656 15.8638 23.281 15.5 24.2188 15.5Z" fill="#E84237"/>
<path d="M6.29688 16.9531H12.1094C12.2378 16.9531 12.361 16.9021 12.4519 16.8113C12.5427 16.7204 12.5938 16.5972 12.5938 16.4688V13.5625C12.5938 13.434 12.5427 13.3108 12.4519 13.22C12.361 13.1292 12.2378 13.0781 12.1094 13.0781H6.29688C6.16841 13.0781 6.04521 13.1292 5.95437 13.22C5.86353 13.3108 5.8125 13.434 5.8125 13.5625V16.4688C5.8125 16.5972 5.86353 16.7204 5.95437 16.8113C6.04521 16.9021 6.16841 16.9531 6.29688 16.9531ZM6.78125 14.0469H11.625V15.9844H6.78125V14.0469Z" fill="#E84237"/>
<rect x="2.5271" y="21.3072" width="2.65714" height="1.93315" transform="rotate(-7.97334 2.5271 21.3072)" fill="#161616"/>
</svg>
