<svg width="21" height="21" viewBox="0 0 21 21" fill="none" xmlns="http://www.w3.org/2000/svg">
<path d="M16.0001 16C16.5306 16 17.0393 16.2107 17.4144 16.5858C17.7895 16.9609 18.0002 17.4696 18.0002 18C18.0002 18.5304 17.7895 19.0391 17.4144 19.4142C17.0393 19.7893 16.5306 20 16.0001 20C15.4697 20 14.961 19.7893 14.5859 19.4142C14.2108 19.0391 14.0001 18.5304 14.0001 18C14.0001 17.4696 14.2108 16.9609 14.5859 16.5858C14.961 16.2107 15.4697 16 16.0001 16ZM16.0001 17C15.7349 17 15.4806 17.1054 15.293 17.2929C15.1055 17.4804 15.0001 17.7348 15.0001 18C15.0001 18.2652 15.1055 18.5196 15.293 18.7071C15.4806 18.8946 15.7349 19 16.0001 19C16.2654 19 16.5197 18.8946 16.7073 18.7071C16.8948 18.5196 17.0002 18.2652 17.0002 18C17.0002 17.7348 16.8948 17.4804 16.7073 17.2929C16.5197 17.1054 16.2654 17 16.0001 17ZM7.00006 16C7.5305 16 8.03921 16.2107 8.41429 16.5858C8.78936 16.9609 9.00008 17.4696 9.00008 18C9.00008 18.5304 8.78936 19.0391 8.41429 19.4142C8.03921 19.7893 7.5305 20 7.00006 20C6.46962 20 5.96091 19.7893 5.58583 19.4142C5.21076 19.0391 5.00004 18.5304 5.00004 18C5.00004 17.4696 5.21076 16.9609 5.58583 16.5858C5.96091 16.2107 6.46962 16 7.00006 16ZM7.00006 17C6.73484 17 6.48048 17.1054 6.29295 17.2929C6.10541 17.4804 6.00005 17.7348 6.00005 18C6.00005 18.2652 6.10541 18.5196 6.29295 18.7071C6.48048 18.8946 6.73484 19 7.00006 19C7.26528 19 7.51964 18.8946 7.70717 18.7071C7.89471 18.5196 8.00007 18.2652 8.00007 18C8.00007 17.7348 7.89471 17.4804 7.70717 17.2929C7.51964 17.1054 7.26528 17 7.00006 17ZM18.0002 4H4.27303L6.82006 10H15.0001C15.1556 10.0002 15.309 9.96399 15.448 9.89417C15.5869 9.82435 15.7075 9.72291 15.8001 9.598L18.8002 5.598H18.8012C18.9121 5.44936 18.9795 5.2728 18.9958 5.08806C19.0121 4.90333 18.9768 4.71769 18.8937 4.55189C18.8106 4.3861 18.683 4.24668 18.5252 4.14922C18.3674 4.05176 18.1856 4.00009 18.0002 4ZM15.0001 11H6.86606L6.10005 12.56L6.00005 13C6.00005 13.2652 6.10541 13.5196 6.29295 13.7071C6.48048 13.8946 6.73484 14 7.00006 14H18.0002V15H7.00006C6.65182 15.0002 6.30958 14.9094 6.00718 14.7367C5.70479 14.564 5.45273 14.3153 5.27595 14.0153C5.09916 13.7153 5.00378 13.3743 4.99924 13.0261C4.99469 12.6779 5.08115 12.3345 5.25004 12.03L5.97005 10.556L2.33801 2H1V1H3.00002L3.84903 3H18.0002C18.378 3.00004 18.7482 3.10712 19.0677 3.30885C19.3872 3.51059 19.6431 3.79871 19.8056 4.13985C19.9681 4.481 20.0306 4.8612 19.986 5.23642C19.9413 5.61165 19.7912 5.96654 19.5532 6.26L16.6392 10.146C16.4549 10.4098 16.2097 10.6252 15.9243 10.7739C15.639 10.9226 15.3219 11.0001 15.0001 11Z" fill="#E84237" stroke="#E84237" stroke-width="0.5"/>
</svg>
