<svg width="16" height="14" viewBox="0 0 16 14" fill="none" xmlns="http://www.w3.org/2000/svg">
<path d="M13.268 1.5165H12.786V1.05633C12.786 0.473619 12.2605 0 11.6139 0C10.9668 0 10.4418 0.473619 10.4418 1.05633V1.51612H9.23894V1.05633C9.23894 0.473619 8.71347 0 8.06683 0C7.42019 0 6.89472 0.473619 6.89472 1.05633V1.51612H5.69187V1.05633C5.69187 0.473619 5.1664 0 4.51976 0C3.87312 0 3.34765 0.473619 3.34765 1.05633V1.51612H2.73218C1.70362 1.51612 0.866455 2.24864 0.866455 3.14863V12.3675C0.866455 13.2675 1.70362 14 2.73218 14H13.268C14.297 14 15.1337 13.2675 15.1337 12.3675V3.14863C15.1337 2.24902 14.2966 1.5165 13.268 1.5165ZM11.1003 1.05633C11.1003 0.79167 11.3307 0.576179 11.6139 0.576179C11.8975 0.576179 12.1275 0.79167 12.1275 1.05633V2.93698C12.1275 3.20164 11.8975 3.41713 11.6139 3.41713C11.3307 3.41713 11.1003 3.20164 11.1003 2.93698V1.05633ZM7.55321 1.05633C7.55321 0.79167 7.78368 0.576179 8.06683 0.576179C8.34998 0.576179 8.58045 0.79167 8.58045 1.05633V2.93698C8.58045 3.20164 8.34998 3.41713 8.06683 3.41713C7.78368 3.41713 7.55321 3.20164 7.55321 2.93698V1.05633ZM4.0057 1.05633C4.0057 0.79167 4.23617 0.576179 4.51932 0.576179C4.80247 0.576179 5.03294 0.79167 5.03294 1.05633V2.93698C5.03294 3.20164 4.80247 3.41713 4.51932 3.41713C4.23617 3.41713 4.0057 3.20164 4.0057 2.93698V1.05633ZM14.0363 12.3679C14.0363 12.7386 13.6917 13.0401 13.268 13.0401H2.73218C2.30855 13.0401 1.96394 12.7386 1.96394 12.3679V3.91725H14.0363V12.3679Z" fill="#E84237"/>
<path d="M4.96884 5.61816H2.95166V7.18883H4.96884V5.61816Z" fill="#E84237"/>
<path d="M7.66166 5.61816H5.64404V7.18883H7.66166V5.61816Z" fill="#E84237"/>
<path d="M10.3558 5.61816H8.33862V7.18883H10.3558V5.61816Z" fill="#E84237"/>
<path d="M13.0486 5.61816H11.031V7.18883H13.0486V5.61816Z" fill="#E84237"/>
<path d="M4.96884 7.7146H2.95166V9.28411H4.96884V7.7146Z" fill="#E84237"/>
<path d="M7.66166 7.7146H5.64404V9.28411H7.66166V7.7146Z" fill="#E84237"/>
<path d="M10.3558 7.7146H8.33862V9.28411H10.3558V7.7146Z" fill="#E84237"/>
<path d="M13.0486 7.7146H11.031V9.28411H13.0486V7.7146Z" fill="#E84237"/>
<path d="M4.96884 9.81042H2.95166V11.3799H4.96884V9.81042Z" fill="#E84237"/>
<path d="M7.66166 9.81042H5.64404V11.3799H7.66166V9.81042Z" fill="#E84237"/>
<path d="M10.3558 9.81042H8.33862V11.3799H10.3558V9.81042Z" fill="#E84237"/>
<path d="M13.0486 9.81042H11.031V11.3799H13.0486V9.81042Z" fill="#E84237"/>
</svg>
