<svg width="15" height="13" viewBox="0 0 15 13" fill="none" xmlns="http://www.w3.org/2000/svg">
<path d="M13.1666 0.833328H1.83329C1.05413 0.833328 0.423709 1.47083 0.423709 2.24999L0.416626 10.75C0.416626 11.5292 1.05413 12.1667 1.83329 12.1667H13.1666C13.9458 12.1667 14.5833 11.5292 14.5833 10.75V2.24999C14.5833 1.47083 13.9458 0.833328 13.1666 0.833328ZM12.8833 3.84374L7.87538 6.97458C7.64871 7.11624 7.35121 7.11624 7.12454 6.97458L2.11663 3.84374C2.0456 3.80387 1.9834 3.75 1.9338 3.6854C1.88419 3.62079 1.84821 3.5468 1.82803 3.46788C1.80786 3.38897 1.8039 3.30678 1.8164 3.2263C1.82891 3.14581 1.85761 3.0687 1.90078 2.99962C1.94395 2.93055 2.00069 2.87096 2.06756 2.82445C2.13443 2.77794 2.21003 2.74548 2.28981 2.72904C2.36959 2.7126 2.45187 2.71251 2.53168 2.72879C2.61149 2.74507 2.68716 2.77737 2.75413 2.82374L7.49996 5.79166L12.2458 2.82374C12.3128 2.77737 12.3884 2.74507 12.4682 2.72879C12.5481 2.71251 12.6303 2.7126 12.7101 2.72904C12.7899 2.74548 12.8655 2.77794 12.9324 2.82445C12.9992 2.87096 13.056 2.93055 13.0991 2.99962C13.1423 3.0687 13.171 3.14581 13.1835 3.2263C13.196 3.30678 13.1921 3.38897 13.1719 3.46788C13.1517 3.5468 13.1157 3.62079 13.0661 3.6854C13.0165 3.75 12.9543 3.80387 12.8833 3.84374Z" fill="#E84237"/>
</svg>
