<svg width="16" height="10" viewBox="0 0 16 10" fill="none" xmlns="http://www.w3.org/2000/svg">
<path d="M15.6652 0.0935059H0.334613C0.149906 0.0935059 0 0.243412 0 0.428118V9.57174C0 9.75644 0.149906 9.90635 0.334613 9.90635H15.6654C15.8501 9.90635 16 9.75644 16 9.57174V0.428118C15.9998 0.243245 15.8499 0.0935059 15.6652 0.0935059ZM4.24088 1.225C5.15102 1.225 5.88885 1.96265 5.88885 2.8728C5.88885 3.78294 5.15119 4.52093 4.24088 4.52093C3.33057 4.52093 2.59291 3.78311 2.59291 2.8728C2.59308 1.96282 3.33073 1.225 4.24088 1.225ZM6.79882 8.77486H4.26899H1.73915C0.745684 7.64019 1.92603 5.58851 1.92603 5.58851C2.267 5.03557 3.14251 4.77139 3.97386 4.713C4.07173 4.70597 4.17044 4.9223 4.26899 4.95108C4.36753 4.9223 4.46624 4.70597 4.56412 4.713C5.39546 4.77172 6.27097 5.0359 6.61194 5.58851C6.61194 5.58851 7.79229 7.64019 6.79882 8.77486ZM14.483 8.22057C14.483 8.3591 14.3706 8.47153 14.2321 8.47153H10.1331C9.99454 8.47153 9.88211 8.3591 9.88211 8.22057V7.53044C9.88211 7.39191 9.99454 7.27948 10.1331 7.27948H14.2321C14.3706 7.27948 14.483 7.39191 14.483 7.53044V8.22057ZM14.483 6.04559C14.483 6.18412 14.3706 6.29655 14.2321 6.29655H10.1331C9.99454 6.29655 9.88211 6.18412 9.88211 6.04559V5.35545C9.88211 5.21693 9.99454 5.1045 10.1331 5.1045H14.2321C14.3706 5.1045 14.483 5.21693 14.483 5.35545V6.04559ZM14.483 3.87061C14.483 4.00914 14.3706 4.12157 14.2321 4.12157H7.95809C7.81956 4.12157 7.70713 4.00914 7.70713 3.87061V1.77928C7.70713 1.64075 7.81956 1.52832 7.95809 1.52832H14.2321C14.3706 1.52832 14.483 1.64075 14.483 1.77928V3.87061Z" fill="#E84237"/>
</svg>
